<?xml version="1.0" encoding="utf-8"?>
<!-- Generator: Adobe Illustrator 19.0.0, SVG Export Plug-In . SVG Version: 6.00 Build 0)  -->
<svg version="1.1" id="Layer_1" xmlns="http://www.w3.org/2000/svg" xmlns:xlink="http://www.w3.org/1999/xlink" x="0px" y="0px"
	 viewBox="0 0 595.3 841.9" style="enable-background:new 0 0 595.3 841.9;" xml:space="preserve">
<g id="XMLID_3_">
	<path id="XMLID_4_" d="M342.8,184.9c1.5,0,2.8,0.9,3.8,2.6v0.6c0,0.9-2.3,3.1-6.8,6.6c-10.7,6.8-17.6,10.2-20.7,10.2
		c-1.3-0.3-1.9-0.6-1.9-0.9c0-0.3,1.8-1,5.5-2.1c6.3-3,12.7-7.1,19.3-12.3c1.4-1.5,2.1-2.3,2.1-2.5c-0.4,0-0.7-0.1-0.9-0.2
		c-4.4,0-13.6,3.2-27.7,9.7c-6.4,3.5-11.5,6.4-15.4,8.7c-5.7,3.9-9.4,6.7-11,8.2c-0.4,0-4.2,3.4-11.4,10.2c-7.4,8-12.8,15.3-16.1,22
		c-1.3,3-1.9,5.2-1.9,6.6c0,2.5,1.6,3.8,4.7,3.8h0.8c3,0,10.9-2.8,23.7-8.3c0.1-0.2,1.6-0.9,4.5-2.1c13.3-6.1,25.9-10.7,37.9-14
		c3-0.7,4.7-1.1,5.1-1.3c0.1,0,0.2,0.1,0.2,0.2c2.8-0.9,7.1-1.5,12.9-1.9v0.2l0.4-0.2h0.8v0.4c0,0.4-1.8,0.8-5.3,1.2l0.2,0.4
		c-0.2,0.3-1.3,0.5-3.2,0.8c0,0.3-0.1,0.4-0.4,0.4h-0.4c-0.1,0-0.2-0.1-0.2-0.2l-0.4,0.2h-0.2c0-0.4-0.3-0.6-0.9-0.6h-0.2v0.4h0.6
		v0.4l-0.9,0.2v-0.2c-5.4,1.3-9.8,2.5-13.3,3.6c-0.3-0.1-0.5-0.2-0.6-0.2c0,0.2-0.8,0.6-2.5,1.3h-1.7c-0.4,0.4-1.9,1-4.4,1.7
		c-1.9,0.9-4.1,1.7-6.8,2.5c-1.2,0.6-3.9,1.8-8.2,3.4c-4.2,2-8.1,3.7-11.6,5.1c-12.2,5.8-20.9,8.7-26.2,8.7c-3,0-5.2-1.8-6.6-5.3
		V252c0-4,2.6-9.6,7.9-16.9c1.9-2.6,4.1-5.4,6.9-8.5c5.3-5.8,10.6-11,16.1-15.5c10.5-7.8,19.7-13.5,27.5-16.9
		C329,187.9,337.9,184.9,342.8,184.9z"/>
	<path id="XMLID_6_" d="M293.6,213.9h0.2c1.5,0.3,2.3,0.5,2.3,0.7v0.6c-5.7,7.9-8.5,12.7-8.5,14.2c0.1,0.5,0.3,0.7,0.4,0.7
		c2.3-0.5,6.9-3.5,13.9-9c0-0.4,0.4-0.7,1.3-1l5.8-5.2h0.8v0.1c-0.8,0.3-1.2,0.7-1.2,1.1l0.2,0.3c-0.5,0.6-0.8,1-0.8,1.3l0.4-0.1
		h0.2v0.4c-0.2,0-0.5,0.1-0.8,0.4l-0.6-0.3l-0.2,0.6c0.3,0,0.4,0.1,0.4,0.3c0,0.2-0.1,0.3-0.4,0.3s-0.4-0.1-0.4-0.4h-0.4v0.7
		c0.3,0,0.4,0,0.4,0.1c0,0.2-0.7,0.8-2.1,2c-0.8,1-2.7,2.5-5.6,4.5c0,0.4-0.9,1.1-2.7,2.1c-3.3,2.5-6,3.8-8.3,3.8
		c-1.8-0.5-2.9-1.1-3.3-1.8v-0.8c0-1.4,1-3.6,2.9-6.5C289.5,218.5,291.6,215.5,293.6,213.9z M304.6,220.5l0.4,0.1
		c0-0.2,0.1-0.3,0.4-0.3V220h-0.2C305,220,304.8,220.2,304.6,220.5z"/>
	<path id="XMLID_9_" d="M334,212.8h0.2l1.2,1.2v0.2c-0.5,0.6-1.3,1.4-2.6,2.4c-0.1,0.2-0.2,0.4-0.2,0.7h-0.4l-0.4-0.2
		c0,0.1-0.1,0.2-0.2,0.2l0.2,0.4v0.2c-0.2,0-0.4,0.1-0.7,0.3l-0.3-0.2c0,0.4-0.4,0.5-1.1,0.5v0.2c0,0.2,0.2,0.4,0.4,0.4
		c0.2-0.1,0.4-0.2,0.5-0.2v0.2c0,0.2-0.2,0.3-0.5,0.5c0-0.2-0.1-0.4-0.4-0.4h-0.4c0,0.2-0.4,0.6-1.2,1c0,0.1-0.7,0.8-2.1,2.1
		c0.1,0,0.2,0.1,0.2,0.2c-0.6,0.2-0.8,0.6-0.8,1.2l0.2,0.9c-0.3-0.2-0.5-0.4-0.7-0.4c-0.4,0-1.1,0.7-1.9,2.1l-1.2,1
		c0.2,0,0.4,0.1,0.4,0.4c-0.6,0.6-1.1,1.4-1.5,2.6c-0.1,0-0.3,0.3-0.7,0.9v1.4c0.4,0.4,0.5,0.7,0.5,0.8c-0.2,0.5-0.4,0.7-0.5,0.7
		h-0.2c-0.8-0.4-1.2-0.9-1.2-1.5v-0.5c0-1.2,0.9-2.9,2.7-5.2c0.4-0.6,1.2-1.8,2.4-3.4V223h-0.4l-0.5,0.3h-0.2l-0.5-0.3
		c0,0.1-0.1,0.1-0.2,0.1l0.2,0.4v0.2c-0.1,0-0.4,0.1-1.1,0.2c-0.2-0.1-0.4-0.2-0.5-0.2c-2.6,2.5-4.2,3.9-4.7,4v0.2l-0.3-0.2h-0.2
		v0.2h0.3c-3.7,2.7-6.1,4.1-7.4,4.1H308c-2.1-0.4-3.1-1.3-3.1-2.7c0-2.6,3.4-6.5,10.2-11.7c3.4-2.3,5.7-3.4,6.9-3.4h0.4
		c1.1,0,2.8,0.4,5.1,1.3c-4.9,0.8-9,2.3-12.1,4.4c-1.1,1-2.2,1.9-3.3,2.6c-3.3,3.5-5,5.9-5,7.1c0.1,0.2,0.2,0.4,0.2,0.5
		c1.3,0,3.7-1.1,7.4-3.3l8.4-5.8l4.8-3.4C331.3,214.3,333.4,212.8,334,212.8z M322.7,222.6v0.2h0.7c0.2,0,0.4-0.1,0.4-0.4v-0.4h-0.2
		C323.1,222.4,322.8,222.6,322.7,222.6z M324,220.7v1l1.2,0.2l0.2-0.4v-0.7C324.6,220.8,324.1,220.7,324,220.7z M324,222.6v0.2h0.5
		c0-0.1,0.1-0.3,0.2-0.5h-0.3C324.1,222.3,324,222.4,324,222.6z"/>
	<path id="XMLID_14_" d="M350.7,212.7v0.4c-0.1,0-0.3,0.2-0.6,0.6c-0.2-0.1-0.3-0.1-0.4-0.1c0,0.3-0.4,0.6-1.1,0.7
		c0,0.3-0.1,0.4-0.3,0.4h-0.1v-0.3h-0.3l0.3,0.4c-0.8,0.3-1.9,1-3.2,2.1c-0.8,0-1.6,0.5-2.5,1.5v0.7c-0.1,0-0.3,0.1-0.6,0.3h-0.1
		v-0.1l0.3-0.4h-0.3c-0.1,0-0.3,0.1-0.4,0.4v0.3h0.3c-0.4,0.6-0.6,0.8-0.7,0.8l-0.7-0.1l0.1,0.3v0.4l-0.7,0.3l-0.7-0.1
		c0,0.2-0.5,0.6-1.4,1.4l0.3,0.1l0.4-0.3c0.2,0,0.3,0.1,0.3,0.3c-0.8,0.8-1.4,1.1-1.7,1.1v-0.3h-0.1c-0.2,0-0.3,0.1-0.3,0.3
		c0.1,0,0.3,0.1,0.4,0.4c-1.9,2.1-3.5,4.2-4.8,6.3c-0.3,0.9-0.6,1.4-0.8,1.4h-0.3c-0.9-0.6-1.4-1-1.4-1.3c0.2-0.7,1.1-2.2,2.7-4.5
		l3.4-5.5c2.1-3.6,3.3-5.4,3.5-5.5h0.3c0.3,0.5,0.6,0.9,1,1.1c0,0.5-0.5,1.5-1.5,3.1v0.1C343,216,347,213.7,350.7,212.7z M339,221.6
		h0.3v0.1c0,0.2-0.2,0.4-0.7,0.4V222C338.6,221.9,338.7,221.7,339,221.6z M340.5,219.8v0.3h0.4c0-0.2-0.1-0.3-0.3-0.3H340.5z"/>
	<path id="XMLID_18_" d="M378.2,186.2h0.3c1,0.4,1.5,0.6,1.5,0.8l-5.4,6.9l-5.4,6.9c-0.1,0.1-0.7,0.7-1.7,2
		c-0.2,0.1-1.1,1.2-2.8,3.3c-1,1.3-2,2.4-3,3.4v0.1c0.9,0.1,1.7,0.2,2.4,0.2l0.3-0.1c0.2,0.1,0.4,0.1,0.6,0.1l1.9-0.2
		c0.1,0,0.3,0,0.5,0.1l0.3-0.1c0.7,0.1,1.2,0.1,1.6,0.1l0.3-0.1c0.2,0.1,0.3,0.1,0.4,0.1l1.1-0.1v0.1c0.1,0,0.1,0,0.1-0.1
		c0.1,0,0.4,0,0.9,0.1c0.2,0,0.8,0,1.8-0.1c0.1,0,0.2,0,0.5,0.1c0.7-0.1,1.2-0.1,1.6-0.1h1.7c0.2,0,0.4,0,0.6-0.1
		c0.2,0,0.9,0.1,1.9,0.2c0.7-0.1,1.3-0.1,1.8-0.1c0.2,0,0.8,0,1.7,0.1l0.3-0.1c0.5,0.1,0.9,0.1,1.2,0.1c0.1,0,0.6,0,1.5-0.1v0.1
		c0.2-0.1,0.3-0.1,0.4-0.1c0.2,0,0.8,0,1.7,0.1c0.1,0,0.1,0,0.1-0.1l1.1,0.1h2.8l0.9,0.1l0.3-0.1c0.7,0.1,1.3,0.1,1.7,0.1h0.6
		l0.7-0.1l0.2,0.2l0.3-0.1c0.5,0,0.8,0.1,0.9,0.1c0.5,0,0.9-0.1,1.2-0.1l0.3,0.1c0.2,0,0.4-0.1,0.6-0.1c0.1,0,0.1,0,0.1,0.1l0.6-0.1
		c0.1,0,0.7,0,1.9,0.1l0.8-0.1c2.4,0.1,3.7,0.2,3.9,0.2l0.7-0.1c1.5,0,2.8,0.1,3.9,0.2l0.3-0.1l0.7,0.2l0.3-0.1l1,0.1l0.3-0.1
		l0.3,0.1c0.1,0,0.2,0,0.2-0.1c1.3,0,1.9,0.1,1.9,0.2l0.3-0.1h0.5l0.7,0.1c0-0.1,0.2-0.2,0.3-0.2h0.1c0.2,0.1,0.7,0.2,1.3,0.3
		c0-0.1,0.2-0.2,0.3-0.2c0,0.1,0.1,0.2,0.3,0.2l0.9-0.1c1,0.1,1.6,0.2,1.8,0.2c0.2-0.1,0.4-0.1,0.6-0.1h0.1c0.2,0,0.3,0.1,0.3,0.2
		c0.1,0,0.2,0,0.2-0.1l1,0.1h1.1c0.1,0,0.1,0,0.1,0.1l0.3-0.1c0.7,0.1,1.1,0.2,1.2,0.2v-0.2c0.2,0.1,1,0.2,2.4,0.4v0.6l-0.2,0.2
		c-0.8-0.1-1.2-0.2-1.2-0.3l-0.3,0.1h-0.1c-0.2,0-0.3-0.1-0.3-0.3h-0.5l0.2,0.2l-0.5,0.2h-0.6c-0.2,0-0.3-0.1-0.3-0.2
		c-0.1,0-0.1,0-0.1,0.1l-1.1-0.1l-1.8,0.1c-0.5,0-0.8-0.1-0.8-0.2l-0.7,0.1h-0.3c-0.2,0-0.4,0-0.6-0.1c-0.4,0.1-0.9,0.2-1.5,0.3
		c0-0.1-0.1-0.2-0.3-0.2c-0.2,0-0.4,0-0.6,0.1l-1.5-0.5l-0.3,0.1h-0.5v0.2c-0.2-0.1-0.5-0.2-0.9-0.2c0,0.2-1.1,0.3-3.4,0.4
		c-0.4-0.1-0.6-0.2-0.6-0.2l-0.7,0.1h-0.3c-0.2-0.2-0.6-0.3-1.2-0.3c0,0.1-0.1,0.2-0.3,0.2h-0.7c-0.1,0-0.2,0-0.2-0.1l-0.3,0.1
		l-0.9-0.1c-0.1,0-0.4,0-0.9,0.1c-0.5-0.1-0.9-0.1-1.2-0.1l-0.3,0.1c-0.1,0-0.4-0.1-0.9-0.4v0.3h-0.3l0.1-0.2h-0.3v0.2h-0.4
		l-0.8-0.1c0,0.1-0.2,0.2-0.6,0.3c0,0-0.2-0.1-0.6-0.3l-0.3,0.1h-1.5l-0.3-0.1l-0.1,0.2l-2.8-0.2l-0.6,0.1c-1.9-0.1-3.2-0.1-3.7-0.2
		l-0.3,0.1c-1.5-0.1-2.3-0.1-2.4-0.2c-0.4,0.1-0.8,0.1-1.1,0.1c-0.4,0-1,0-1.7-0.1c-0.8,0.1-1.2,0.1-1.5,0.2l-0.9-0.1h-0.9
		c-0.1,0-0.1,0-0.1-0.1c-0.1,0-0.2,0-0.2,0.1l-0.7-0.1c-0.6,0-1.3,0-1.9,0.1c-0.6-0.1-1.4-0.1-2.4-0.1v-0.2h-0.3
		c0,0.1-0.1,0.2-0.2,0.3l-0.7-0.1c-1.2,0.1-1.9,0.1-1.9,0.1c0-0.1-0.2-0.2-0.5-0.3c0,0.1-0.1,0.2-0.4,0.3c-0.2,0-0.3-0.1-0.3-0.2
		l0.1-0.2h-0.1c-0.3,0-0.7,0.1-1.1,0.2h-0.4c-0.1,0-0.2,0-0.2-0.1l-0.3,0.1h-2.5v-0.2h0.9l-0.1-0.2l-1.1,0.1h-0.7v0.2H368
		c-0.1,0-0.1,0-0.1-0.1l-0.3,0.1c-0.2,0-0.3-0.1-0.4-0.1l-0.2,0.2l-0.7-0.1h-2.7c-0.1,0-0.3-0.1-0.8-0.4H362c-0.6,0-0.9,0.1-0.9,0.3
		l0.7-0.1h0.5v0.3h-0.5c-1.2,0-1.8,0.2-1.8,0.6c-0.8,1.1-1.4,1.8-1.9,2.3c0,0.1-0.4,0.6-1.3,1.5c-0.6,1.1-1.1,1.6-1.5,1.6
		c-0.2,0-0.3-0.1-0.4-0.1v0.2c0.3,0,0.4,0.1,0.4,0.2c0,0.1-0.8,1.1-2.4,2.9c0,0.3-0.4,0.8-1.3,1.6c-0.3,0.7-0.6,1-0.9,1.2h-0.2v0.5
		l-0.9,0.7c0.1,0,0.1,0,0.1,0.1c-0.1,0.1-0.7,0.8-1.8,2.1c-0.6,1-1.2,1.6-1.8,1.8l-0.3-0.1v0.2c0.3,0,0.5,0.1,0.5,0.2l-0.6,0.2
		l0.1,0.2v0.1h-0.6v0.2c0.2,0.1,0.3,0.3,0.3,0.4c-0.2,0.3-0.4,0.4-0.6,0.5l-0.3-0.1c-0.8,0.8-1.2,1.4-1.5,2l-1.2,0.4l-0.2-0.2v-0.2
		l0.8,0.1v-0.1l-0.3-0.3v-0.2c0.5-0.9,1.3-2.1,2.5-3.7c0-0.2,1.1-1.8,3.4-4.7c0.5-0.7,0.9-1.1,1.2-1.1l-0.1-0.2v-0.1
		c0.6-0.3,1.1-0.9,1.5-1.8c0.2,0,0.3-0.2,0.5-0.7c1.7-1.7,3-3.3,3.9-4.8c0.2,0,0.6-0.4,1.3-1.1c0.5-0.6,1-1.4,1.5-2.3h-0.2
		c-0.6,0-0.9,0-1,0.1c-0.5,0-1-0.1-1.3-0.1h-0.6c-1,0-1.8,0-2.4,0.1l-1.1-0.1c-3.6,0-5.9,0.1-7,0.2l-0.3-0.1l-0.9,0.1h-0.5
		c-0.3,0-0.5,0-0.5-0.1l-0.7,0.1h-1.1l-0.9-0.1c-0.2,0.1-0.4,0.1-0.5,0.1V211c-0.1,0-0.1,0-0.1,0.1l-0.8-0.1h-2.1
		c-3.5,0-5.2-0.4-5.2-1.3c-0.2,0-0.3-0.2-0.3-0.6c2.9-0.9,6.2-1.7,10-2.5c2.6-0.5,4.3-0.8,4.9-1.1c0.1,0,0.2,0,0.2,0.1
		c2.5-0.7,6.2-1.3,11.3-2h0.3c0.7,0.4,1,0.7,1,1.2c-4.9,0.7-11,1.8-18.2,3.4c-3.8,1-5.8,1.4-6,1.4v0.1c1.1,0.1,3.1,0.2,5.8,0.2h1.2
		c0.2,0,0.4,0,0.6,0.1c0.2,0,0.4-0.1,0.6-0.1s0.3,0,0.3,0.1l0.7-0.1h4.2c0.4,0,0.9,0,1.7-0.1c0.1,0,0.1,0,0.1,0.1l1-0.1h1.4
		c0.2,0,0.4,0,0.6,0.1c0.1,0,0.1,0,0.1-0.1c0.5,0.1,0.8,0.1,0.9,0.1c0.2,0,1,0,2.4-0.1l1.1,0.1c1.7,0,2.5-0.2,2.5-0.6
		c0.4-0.3,1.5-1.6,3.3-3.8c0.5-0.4,0.8-0.9,1.1-1.4c0.3,0,0.7-0.5,1.2-1.4c1-1.1,1.7-1.9,2.1-2.7c0.3-0.1,0.8-0.7,1.6-2
		c0.9-1,1.6-2,2.3-2.8c0.1,0,0.5-0.5,1.2-1.6c0.2-0.1,1.7-2.1,4.6-6C377.4,186.6,377.9,186.2,378.2,186.2z M356.4,210.7v0.1h0.6
		v-0.1H356.4z M366.5,210.6L366.5,210.6l0.6,0.1v-0.1H366.5z M375.2,210.6L375.2,210.6l0.6,0.1l-0.2-0.2
		C375.4,210.6,375.3,210.6,375.2,210.6z M382,210.6L382,210.6l0.6,0.1v-0.1H382z M393.9,210.7v0.1h0.9v-0.1H393.9z M412.8,211v0.1
		h0.7v-0.2C413.3,211,413.1,211,412.8,211z M417.9,211.2h0.3l0.7,0.1v0.2l-1-0.1V211.2z M428,211.4c0,0.1,0.1,0.2,0.3,0.2l0.1-0.2
		H428z"/>
	<path id="XMLID_28_" d="M382.9,212.8h0.2l1.2,1.2v0.2c-0.5,0.6-1.3,1.4-2.6,2.4c-0.1,0.2-0.2,0.4-0.2,0.7h-0.4l-0.4-0.2
		c0,0.1-0.1,0.2-0.2,0.2l0.2,0.4v0.2c-0.2,0-0.4,0.1-0.7,0.3l-0.3-0.2c0,0.4-0.4,0.5-1.1,0.5v0.2c0,0.2,0.2,0.4,0.4,0.4
		c0.2-0.1,0.4-0.2,0.5-0.2v0.2c0,0.2-0.2,0.3-0.5,0.5c0-0.2-0.1-0.4-0.4-0.4h-0.4c0,0.2-0.4,0.6-1.2,1c0,0.1-0.7,0.8-2.1,2.1
		c0.1,0,0.2,0.1,0.2,0.2c-0.6,0.2-0.8,0.6-0.8,1.2l0.2,0.9c-0.3-0.2-0.5-0.4-0.7-0.4c-0.4,0-1.1,0.7-1.9,2.1l-1.2,1
		c0.2,0,0.4,0.1,0.4,0.4c-0.6,0.6-1.1,1.4-1.5,2.6c-0.1,0-0.3,0.3-0.7,0.9v1.4c0.4,0.4,0.5,0.7,0.5,0.8c-0.2,0.5-0.4,0.7-0.5,0.7
		h-0.2c-0.8-0.4-1.2-0.9-1.2-1.5v-0.5c0-1.2,0.9-2.9,2.7-5.2c0.4-0.6,1.2-1.8,2.4-3.4V223h-0.4l-0.5,0.3h-0.2l-0.5-0.3
		c0,0.1-0.1,0.1-0.2,0.1l0.2,0.4v0.2c-0.1,0-0.4,0.1-1.1,0.2c-0.2-0.1-0.4-0.2-0.5-0.2c-2.6,2.5-4.2,3.9-4.7,4v0.2l-0.3-0.2h-0.2
		v0.2h0.3c-3.7,2.7-6.1,4.1-7.4,4.1h-0.5c-2.1-0.4-3.1-1.3-3.1-2.7c0-2.6,3.4-6.5,10.2-11.7c3.4-2.3,5.7-3.4,6.9-3.4h0.4
		c1.1,0,2.8,0.4,5.1,1.3c-4.9,0.8-9,2.3-12.1,4.4c-1.1,1-2.2,1.9-3.3,2.6c-3.3,3.5-5,5.9-5,7.1c0.1,0.2,0.2,0.4,0.2,0.5
		c1.3,0,3.7-1.1,7.4-3.3l8.4-5.8l4.8-3.4C380.3,214.3,382.3,212.8,382.9,212.8z M371.6,222.6v0.2h0.7c0.2,0,0.4-0.1,0.4-0.4v-0.4
		h-0.2C372.1,222.4,371.8,222.6,371.6,222.6z M373,220.7v1l1.2,0.2l0.2-0.4v-0.7C373.5,220.8,373.1,220.7,373,220.7z M373,222.6v0.2
		h0.5c0-0.1,0.1-0.3,0.2-0.5h-0.3C373.1,222.3,373,222.4,373,222.6z"/>
	<path id="XMLID_33_" d="M413.2,186.2h0.3c1,0.4,1.5,0.6,1.5,0.8l-5.4,6.9l-5.4,6.9c-0.1,0.1-0.7,0.7-1.7,2
		c-0.2,0.1-1.1,1.2-2.8,3.3c-1,1.3-2,2.4-3,3.4v0.1c0.9,0.1,1.7,0.2,2.4,0.2l0.3-0.1c0.2,0.1,0.4,0.1,0.6,0.1l1.9-0.2
		c0.1,0,0.3,0,0.5,0.1l0.3-0.1c0.7,0.1,1.2,0.1,1.6,0.1l0.3-0.1c0.2,0.1,0.3,0.1,0.4,0.1l1.1-0.1v0.1c0.1,0,0.1,0,0.1-0.1
		c0.1,0,0.4,0,0.9,0.1c0.2,0,0.8,0,1.8-0.1c0.1,0,0.2,0,0.5,0.1c0.7-0.1,1.2-0.1,1.6-0.1h1.7c0.2,0,0.4,0,0.6-0.1
		c0.2,0,0.9,0.1,1.9,0.2c0.7-0.1,1.3-0.1,1.8-0.1c0.2,0,0.8,0,1.7,0.1l0.3-0.1c0.5,0.1,0.9,0.1,1.2,0.1c0.1,0,0.6,0,1.5-0.1v0.1
		c0.2-0.1,0.3-0.1,0.4-0.1c0.2,0,0.8,0,1.7,0.1c0.1,0,0.1,0,0.1-0.1l1.1,0.1h2.8l0.9,0.1l0.3-0.1c0.7,0.1,1.3,0.1,1.7,0.1h0.6
		l0.7-0.1l0.2,0.2l0.3-0.1c0.5,0,0.8,0.1,0.9,0.1c0.5,0,0.9-0.1,1.2-0.1l0.3,0.1c0.2,0,0.4-0.1,0.6-0.1c0.1,0,0.1,0,0.1,0.1l0.6-0.1
		c0.1,0,0.7,0,1.9,0.1l0.8-0.1c2.4,0.1,3.7,0.2,3.9,0.2l0.7-0.1c1.5,0,2.8,0.1,3.9,0.2l0.3-0.1l0.7,0.2l0.3-0.1l1,0.1l0.3-0.1
		l0.3,0.1c0.1,0,0.2,0,0.2-0.1c1.3,0,1.9,0.1,1.9,0.2l0.3-0.1h0.5l0.7,0.1c0-0.1,0.2-0.2,0.3-0.2h0.1c0.2,0.1,0.7,0.2,1.3,0.3
		c0-0.1,0.2-0.2,0.3-0.2c0,0.1,0.1,0.2,0.3,0.2l0.9-0.1c1,0.1,1.6,0.2,1.8,0.2c0.2-0.1,0.4-0.1,0.6-0.1h0.1c0.2,0,0.3,0.1,0.3,0.2
		c0.1,0,0.2,0,0.2-0.1l1,0.1h1.1c0.1,0,0.1,0,0.1,0.1l0.3-0.1c0.7,0.1,1.1,0.2,1.2,0.2v-0.2c0.2,0.1,1,0.2,2.4,0.4v0.6l-0.2,0.2
		c-0.8-0.1-1.2-0.2-1.2-0.3l-0.3,0.1h-0.1c-0.2,0-0.3-0.1-0.3-0.3h-0.5l0.2,0.2l-0.5,0.2h-0.6c-0.2,0-0.3-0.1-0.3-0.2
		c-0.1,0-0.1,0-0.1,0.1l-1.1-0.1l-1.8,0.1c-0.5,0-0.8-0.1-0.8-0.2l-0.7,0.1h-0.3c-0.2,0-0.4,0-0.6-0.1c-0.4,0.1-0.9,0.2-1.5,0.3
		c0-0.1-0.1-0.2-0.3-0.2c-0.2,0-0.4,0-0.6,0.1l-1.5-0.5l-0.3,0.1h-0.5v0.2c-0.2-0.1-0.5-0.2-0.9-0.2c0,0.2-1.1,0.3-3.4,0.4
		c-0.4-0.1-0.6-0.2-0.6-0.2l-0.7,0.1h-0.3c-0.2-0.2-0.6-0.3-1.2-0.3c0,0.1-0.1,0.2-0.3,0.2h-0.7c-0.1,0-0.2,0-0.2-0.1l-0.3,0.1
		l-0.9-0.1c-0.1,0-0.4,0-0.9,0.1c-0.5-0.1-0.9-0.1-1.2-0.1l-0.3,0.1c-0.1,0-0.4-0.1-0.9-0.4v0.3h-0.3l0.1-0.2h-0.3v0.2h-0.4
		l-0.8-0.1c0,0.1-0.2,0.2-0.6,0.3c0,0-0.2-0.1-0.6-0.3l-0.3,0.1h-1.5l-0.3-0.1l-0.1,0.2l-2.8-0.2l-0.6,0.1c-1.9-0.1-3.2-0.1-3.7-0.2
		l-0.3,0.1c-1.5-0.1-2.3-0.1-2.4-0.2c-0.4,0.1-0.8,0.1-1.1,0.1c-0.4,0-1,0-1.7-0.1c-0.8,0.1-1.2,0.1-1.5,0.2l-0.9-0.1h-0.9
		c-0.1,0-0.1,0-0.1-0.1c-0.1,0-0.2,0-0.2,0.1l-0.7-0.1c-0.6,0-1.3,0-1.9,0.1c-0.6-0.1-1.4-0.1-2.4-0.1v-0.2h-0.3
		c0,0.1-0.1,0.2-0.2,0.3l-0.7-0.1c-1.2,0.1-1.9,0.1-1.9,0.1c0-0.1-0.2-0.2-0.5-0.3c0,0.1-0.1,0.2-0.4,0.3c-0.2,0-0.3-0.1-0.3-0.2
		l0.1-0.2h-0.1c-0.3,0-0.7,0.1-1.1,0.2h-0.4c-0.1,0-0.2,0-0.2-0.1l-0.3,0.1h-2.5v-0.2h0.9l-0.1-0.2l-1.1,0.1h-0.7v0.2H403
		c-0.1,0-0.1,0-0.1-0.1l-0.3,0.1c-0.2,0-0.3-0.1-0.4-0.1l-0.2,0.2l-0.7-0.1h-2.7c-0.1,0-0.3-0.1-0.8-0.4H397c-0.6,0-0.9,0.1-0.9,0.3
		l0.7-0.1h0.5v0.3h-0.5c-1.2,0-1.8,0.2-1.8,0.6c-0.8,1.1-1.4,1.8-1.9,2.3c0,0.1-0.4,0.6-1.3,1.5c-0.6,1.1-1.1,1.6-1.5,1.6
		c-0.2,0-0.3-0.1-0.4-0.1v0.2c0.3,0,0.4,0.1,0.4,0.2c0,0.1-0.8,1.1-2.4,2.9c0,0.3-0.4,0.8-1.3,1.6c-0.3,0.7-0.6,1-0.9,1.2h-0.2v0.5
		l-0.9,0.7c0.1,0,0.1,0,0.1,0.1c-0.1,0.1-0.7,0.8-1.8,2.1c-0.6,1-1.2,1.6-1.8,1.8l-0.3-0.1v0.2c0.3,0,0.5,0.1,0.5,0.2l-0.6,0.2
		l0.1,0.2v0.1h-0.6v0.2c0.2,0.1,0.3,0.3,0.3,0.4c-0.2,0.3-0.4,0.4-0.6,0.5l-0.3-0.1c-0.8,0.8-1.2,1.4-1.5,2l-1.2,0.4l-0.2-0.2v-0.2
		l0.8,0.1v-0.1l-0.3-0.3v-0.2c0.5-0.9,1.3-2.1,2.5-3.7c0-0.2,1.1-1.8,3.4-4.7c0.5-0.7,0.9-1.1,1.2-1.1l-0.1-0.2v-0.1
		c0.6-0.3,1.1-0.9,1.5-1.8c0.2,0,0.3-0.2,0.5-0.7c1.7-1.7,3-3.3,3.9-4.8c0.2,0,0.6-0.4,1.3-1.1c0.5-0.6,1-1.4,1.5-2.3h-0.2
		c-0.6,0-0.9,0-1,0.1c-0.5,0-1-0.1-1.3-0.1h-0.6c-1,0-1.8,0-2.4,0.1l-1.1-0.1c-3.6,0-5.9,0.1-7,0.2l-0.3-0.1l-0.9,0.1h-0.5
		c-0.3,0-0.5,0-0.5-0.1l-0.7,0.1h-1.1l-0.9-0.1c-0.2,0.1-0.4,0.1-0.5,0.1V211c-0.1,0-0.1,0-0.1,0.1l-0.8-0.1h-2.1
		c-3.5,0-5.2-0.4-5.2-1.3c-0.2,0-0.3-0.2-0.3-0.6c2.9-0.9,6.2-1.7,10-2.5c2.6-0.5,4.3-0.8,4.9-1.1c0.1,0,0.2,0,0.2,0.1
		c2.5-0.7,6.2-1.3,11.3-2h0.3c0.7,0.4,1,0.7,1,1.2c-4.9,0.7-11,1.8-18.2,3.4c-3.8,1-5.8,1.4-6,1.4v0.1c1.1,0.1,3.1,0.2,5.8,0.2h1.2
		c0.2,0,0.4,0,0.6,0.1c0.2,0,0.4-0.1,0.6-0.1s0.3,0,0.3,0.1l0.7-0.1h4.2c0.4,0,0.9,0,1.7-0.1c0.1,0,0.1,0,0.1,0.1l1-0.1h1.4
		c0.2,0,0.4,0,0.6,0.1c0.1,0,0.1,0,0.1-0.1c0.5,0.1,0.8,0.1,0.9,0.1c0.2,0,1,0,2.4-0.1l1.1,0.1c1.7,0,2.5-0.2,2.5-0.6
		c0.4-0.3,1.5-1.6,3.3-3.8c0.5-0.4,0.8-0.9,1.1-1.4c0.3,0,0.7-0.5,1.2-1.4c1-1.1,1.7-1.9,2.1-2.7c0.3-0.1,0.8-0.7,1.6-2
		c0.9-1,1.6-2,2.3-2.8c0.1,0,0.5-0.5,1.2-1.6c0.2-0.1,1.7-2.1,4.6-6C412.4,186.6,412.9,186.2,413.2,186.2z M391.4,210.7v0.1h0.6
		v-0.1H391.4z M401.5,210.6L401.5,210.6l0.6,0.1v-0.1H401.5z M410.2,210.6L410.2,210.6l0.6,0.1l-0.2-0.2
		C410.4,210.6,410.3,210.6,410.2,210.6z M417,210.6L417,210.6l0.6,0.1v-0.1H417z M429,210.7v0.1h0.9v-0.1H429z M447.8,211v0.1h0.7
		v-0.2C448.3,211,448.1,211,447.8,211z M452.9,211.2h0.3l0.7,0.1v0.2l-1-0.1V211.2z M463,211.4c0,0.1,0.1,0.2,0.3,0.2l0.1-0.2H463z"
		/>
	<path id="XMLID_43_" d="M412.2,212h0.3c0.7,0,1.2,0.5,1.7,1.5c0,1-0.8,2.3-2.3,3.9h-0.1l0.1,0.3c-0.1,0-0.3,0.1-0.4,0.4
		c0.1,0,0.3,0.1,0.4,0.4c0,0.2-0.6,0.8-1.8,2H410l-0.3-0.1v0.4l-0.7-0.1c-0.8,0.6-1.2,0.9-1.3,1.1v0.3h0.1c0.8-0.5,1.1-0.8,1.1-1
		l0.3-0.1h0.1v0.3c0,0.1-0.8,0.8-2.3,2h-0.3V223h-0.4v0.1c0,0.2,0.1,0.3,0.4,0.3v0.1c0,0.2-0.1,0.3-0.3,0.3h-0.1l-0.6-0.4
		c0,0.1-0.7,0.8-2.1,2v0.1h0.1c0.1,0,0.4-0.2,0.8-0.6h0.1c0,0.1-0.5,0.6-1.5,1.5h-0.1c0-0.1,0-0.2-0.1-0.4c-0.2,0.1-0.3,0.1-0.4,0.1
		v0.3h0.3v0.1c0,0.2-0.3,0.4-1,0.8h-0.4v-0.3c-0.2,0.1-0.4,0.1-0.6,0.1v0.4l0.4-0.3h0.1v0.4c-0.2,0-1.3,0.8-3.2,2.3
		c-0.2,0-1.1,0.5-2.7,1.4l-2.1,0.4c-2.3-0.3-3.5-1.3-3.5-3v-0.4c0-1.3,1-3.2,3.1-5.8c0-0.2,0.3-0.5,1-1c0-0.3,0.5-0.8,1.5-1.5
		c0-0.2,1.6-1.5,4.8-3.9c2.1-1,4.1-1.9,5.9-2.7c1.5-0.3,2.4-0.4,2.7-0.4h0.7c0.1,0,0.3,0.2,0.7,0.7v0.4c0,0.2-1.4,0.6-4.2,1.3
		c-3.6,1.6-6.5,3.5-8.6,5.5c-1.6,1.3-3,2.9-4.2,4.8c-0.8,1.1-1.3,2.3-1.5,3.5c0.1,0.5,0.3,0.7,0.4,0.7c1.7,0,4.2-1.2,7.7-3.5l6-4.8
		l0.8-0.4l-0.1-0.3l2.8-2.5l3.4-4.2l0.1-1c-0.7-0.3-1.1-0.7-1.4-1L412.2,212z M407.2,221.3v0.3h0.3c0.1,0,0.3-0.1,0.4-0.4h-0.3
		C407.4,221.3,407.3,221.3,407.2,221.3z M410.7,218.5l0.1,0.3v0.4c-0.1,0-0.5,0.2-1.1,0.7v0.3h0.3c0.2,0,0.7-0.5,1.4-1.5h0.1
		c0-0.2-0.1-0.3-0.3-0.3C411.1,218.5,410.9,218.5,410.7,218.5z M413.8,216h0.1v0.1c-0.4,0.7-0.7,1-0.8,1h-0.1V217
		C413.4,216.3,413.7,216,413.8,216z M414.1,214.7c0.2,0,0.3,0.1,0.3,0.3c0,0.2-0.1,0.3-0.3,0.3V214.7z"/>
</g>
</svg>
